# xmcd
#
# Track frame offsets:
#	150
#	16427
#	36487
#	55927
#	76222
#	101197
#	120702
#	140880
#	160557
#	180485
#	199777
#	222797
#
# Disc length: 3300 seconds
#
# Revision: 17
# Processed by: cddbd v1.5.2PL0 Copyright (c) Steve Scherf et al.
# Submitted via: EasyCDDAExtractor 15.3.0.1
#
DISCID=a70ce20c
DTITLE=Toni Braxton - Secrets
DYEAR=1996
DGENRE=R&B
TTITLE0=Come On Over Here
TTITLE1=You're Makin Me High
TTITLE2=There's No Me Without You
TTITLE3=Un-Break My Heart
TTITLE4=Talking In His Sleep
TTITLE5=How Could An Angel Break My Heart
TTITLE6=Find Me A Man
TTITLE7=Let It Flow
TTITLE8=Why Should I Care
TTITLE9=I Don't Want To
TTITLE10=I Love Me Some Him
TTITLE11=In The Late Of The Night, Toni's Secrets
EXTD=YEAR: 1996
EXTT0=
EXTT1=
EXTT2=
EXTT3=
EXTT4=
EXTT5=
EXTT6=
EXTT7=
EXTT8=
EXTT9=
EXTT10=
EXTT11=
PLAYORDER=
